<mxfile host="Electron" modified="2024-02-14T13:58:04.001Z" agent="Mozilla/5.0 (Windows NT 10.0; Win64; x64) AppleWebKit/537.36 (KHTML, like Gecko) draw.io/21.6.1 Chrome/112.0.5615.204 Electron/24.6.1 Safari/537.36" etag="QhPgQwPfzR1BywCy1kl5" version="21.6.1" type="device">
  <diagram name="Página-1" id="rmtIetEgvbQpRknnI5B_">
    <mxGraphModel dx="2684" dy="1093" grid="1" gridSize="10" guides="1" tooltips="1" connect="1" arrows="1" fold="1" page="1" pageScale="1" pageWidth="827" pageHeight="1169" math="0" shadow="0">
      <root>
        <mxCell id="0" />
        <mxCell id="1" parent="0" />
        <mxCell id="A-byGo0PZ-ZunFwNZqk_-2" value="Tren" style="swimlane;fontStyle=1;align=center;verticalAlign=top;childLayout=stackLayout;horizontal=1;startSize=26;horizontalStack=0;resizeParent=1;resizeParentMax=0;resizeLast=0;collapsible=1;marginBottom=0;whiteSpace=wrap;html=1;" parent="1" vertex="1">
          <mxGeometry x="79" y="400" width="230" height="112" as="geometry" />
        </mxCell>
        <mxCell id="A-byGo0PZ-ZunFwNZqk_-3" value="- codigo: String" style="text;strokeColor=none;fillColor=none;align=left;verticalAlign=top;spacingLeft=4;spacingRight=4;overflow=hidden;rotatable=0;points=[[0,0.5],[1,0.5]];portConstraint=eastwest;whiteSpace=wrap;html=1;" parent="A-byGo0PZ-ZunFwNZqk_-2" vertex="1">
          <mxGeometry y="26" width="230" height="26" as="geometry" />
        </mxCell>
        <mxCell id="A-byGo0PZ-ZunFwNZqk_-4" value="" style="line;strokeWidth=1;fillColor=none;align=left;verticalAlign=middle;spacingTop=-1;spacingLeft=3;spacingRight=3;rotatable=0;labelPosition=right;points=[];portConstraint=eastwest;strokeColor=inherit;" parent="A-byGo0PZ-ZunFwNZqk_-2" vertex="1">
          <mxGeometry y="52" width="230" height="8" as="geometry" />
        </mxCell>
        <mxCell id="A-byGo0PZ-ZunFwNZqk_-5" value="+ setCodigo(codigo:String)" style="text;strokeColor=none;fillColor=none;align=left;verticalAlign=top;spacingLeft=4;spacingRight=4;overflow=hidden;rotatable=0;points=[[0,0.5],[1,0.5]];portConstraint=eastwest;whiteSpace=wrap;html=1;" parent="A-byGo0PZ-ZunFwNZqk_-2" vertex="1">
          <mxGeometry y="60" width="230" height="26" as="geometry" />
        </mxCell>
        <mxCell id="A-byGo0PZ-ZunFwNZqk_-17" value="+ getCodigo(): String" style="text;strokeColor=none;fillColor=none;align=left;verticalAlign=top;spacingLeft=4;spacingRight=4;overflow=hidden;rotatable=0;points=[[0,0.5],[1,0.5]];portConstraint=eastwest;whiteSpace=wrap;html=1;" parent="A-byGo0PZ-ZunFwNZqk_-2" vertex="1">
          <mxGeometry y="86" width="230" height="26" as="geometry" />
        </mxCell>
        <mxCell id="A-byGo0PZ-ZunFwNZqk_-7" value="Máquina tractora" style="swimlane;fontStyle=1;align=center;verticalAlign=top;childLayout=stackLayout;horizontal=1;startSize=26;horizontalStack=0;resizeParent=1;resizeParentMax=0;resizeLast=0;collapsible=1;marginBottom=0;whiteSpace=wrap;html=1;" parent="1" vertex="1">
          <mxGeometry x="-240" y="671.3" width="160" height="60" as="geometry" />
        </mxCell>
        <mxCell id="A-byGo0PZ-ZunFwNZqk_-8" value="- potencia: int" style="text;strokeColor=none;fillColor=none;align=left;verticalAlign=top;spacingLeft=4;spacingRight=4;overflow=hidden;rotatable=0;points=[[0,0.5],[1,0.5]];portConstraint=eastwest;whiteSpace=wrap;html=1;" parent="A-byGo0PZ-ZunFwNZqk_-7" vertex="1">
          <mxGeometry y="26" width="160" height="26" as="geometry" />
        </mxCell>
        <mxCell id="A-byGo0PZ-ZunFwNZqk_-10" value="" style="line;strokeWidth=1;fillColor=none;align=left;verticalAlign=middle;spacingTop=-1;spacingLeft=3;spacingRight=3;rotatable=0;labelPosition=right;points=[];portConstraint=eastwest;strokeColor=inherit;" parent="A-byGo0PZ-ZunFwNZqk_-7" vertex="1">
          <mxGeometry y="52" width="160" height="8" as="geometry" />
        </mxCell>
        <mxCell id="A-byGo0PZ-ZunFwNZqk_-45" value="Vagones" style="swimlane;fontStyle=1;align=center;verticalAlign=top;childLayout=stackLayout;horizontal=1;startSize=26;horizontalStack=0;resizeParent=1;resizeParentMax=0;resizeLast=0;collapsible=1;marginBottom=0;whiteSpace=wrap;html=1;" parent="1" vertex="1">
          <mxGeometry x="-65" y="671.3" width="180" height="112" as="geometry" />
        </mxCell>
        <mxCell id="A-byGo0PZ-ZunFwNZqk_-46" value="- capacidad: int" style="text;strokeColor=none;fillColor=none;align=left;verticalAlign=top;spacingLeft=4;spacingRight=4;overflow=hidden;rotatable=0;points=[[0,0.5],[1,0.5]];portConstraint=eastwest;whiteSpace=wrap;html=1;" parent="A-byGo0PZ-ZunFwNZqk_-45" vertex="1">
          <mxGeometry y="26" width="180" height="26" as="geometry" />
        </mxCell>
        <mxCell id="A-byGo0PZ-ZunFwNZqk_-47" value="" style="line;strokeWidth=1;fillColor=none;align=left;verticalAlign=middle;spacingTop=-1;spacingLeft=3;spacingRight=3;rotatable=0;labelPosition=right;points=[];portConstraint=eastwest;strokeColor=inherit;" parent="A-byGo0PZ-ZunFwNZqk_-45" vertex="1">
          <mxGeometry y="52" width="180" height="8" as="geometry" />
        </mxCell>
        <mxCell id="A-byGo0PZ-ZunFwNZqk_-48" value="+ setCapacidad(capacidad:int)" style="text;strokeColor=none;fillColor=none;align=left;verticalAlign=top;spacingLeft=4;spacingRight=4;overflow=hidden;rotatable=0;points=[[0,0.5],[1,0.5]];portConstraint=eastwest;whiteSpace=wrap;html=1;" parent="A-byGo0PZ-ZunFwNZqk_-45" vertex="1">
          <mxGeometry y="60" width="180" height="26" as="geometry" />
        </mxCell>
        <mxCell id="A-byGo0PZ-ZunFwNZqk_-49" value="+ getCapacidad():int" style="text;strokeColor=none;fillColor=none;align=left;verticalAlign=top;spacingLeft=4;spacingRight=4;overflow=hidden;rotatable=0;points=[[0,0.5],[1,0.5]];portConstraint=eastwest;whiteSpace=wrap;html=1;" parent="A-byGo0PZ-ZunFwNZqk_-45" vertex="1">
          <mxGeometry y="86" width="180" height="26" as="geometry" />
        </mxCell>
        <mxCell id="A-byGo0PZ-ZunFwNZqk_-58" value="Empleado" style="swimlane;fontStyle=1;align=center;verticalAlign=top;childLayout=stackLayout;horizontal=1;startSize=26;horizontalStack=0;resizeParent=1;resizeParentMax=0;resizeLast=0;collapsible=1;marginBottom=0;whiteSpace=wrap;html=1;" parent="1" vertex="1">
          <mxGeometry x="500" y="400" width="260" height="252" as="geometry" />
        </mxCell>
        <mxCell id="A-byGo0PZ-ZunFwNZqk_-59" value="- nombre: String" style="text;strokeColor=none;fillColor=none;align=left;verticalAlign=top;spacingLeft=4;spacingRight=4;overflow=hidden;rotatable=0;points=[[0,0.5],[1,0.5]];portConstraint=eastwest;whiteSpace=wrap;html=1;" parent="A-byGo0PZ-ZunFwNZqk_-58" vertex="1">
          <mxGeometry y="26" width="260" height="26" as="geometry" />
        </mxCell>
        <mxCell id="A-byGo0PZ-ZunFwNZqk_-60" value="- SeguridadSocial: String" style="text;strokeColor=none;fillColor=none;align=left;verticalAlign=top;spacingLeft=4;spacingRight=4;overflow=hidden;rotatable=0;points=[[0,0.5],[1,0.5]];portConstraint=eastwest;whiteSpace=wrap;html=1;" parent="A-byGo0PZ-ZunFwNZqk_-58" vertex="1">
          <mxGeometry y="52" width="260" height="18" as="geometry" />
        </mxCell>
        <mxCell id="Nh3Jt7YSOFXCaykqHAAw-3" value="- Domicilio: String" style="text;strokeColor=none;fillColor=none;align=left;verticalAlign=top;spacingLeft=4;spacingRight=4;overflow=hidden;rotatable=0;points=[[0,0.5],[1,0.5]];portConstraint=eastwest;whiteSpace=wrap;html=1;" vertex="1" parent="A-byGo0PZ-ZunFwNZqk_-58">
          <mxGeometry y="70" width="260" height="18" as="geometry" />
        </mxCell>
        <mxCell id="A-byGo0PZ-ZunFwNZqk_-61" value="" style="line;strokeWidth=1;fillColor=none;align=left;verticalAlign=middle;spacingTop=-1;spacingLeft=3;spacingRight=3;rotatable=0;labelPosition=right;points=[];portConstraint=eastwest;strokeColor=inherit;" parent="A-byGo0PZ-ZunFwNZqk_-58" vertex="1">
          <mxGeometry y="88" width="260" height="8" as="geometry" />
        </mxCell>
        <mxCell id="A-byGo0PZ-ZunFwNZqk_-62" value="+ setNombre(nombre:String): type" style="text;strokeColor=none;fillColor=none;align=left;verticalAlign=top;spacingLeft=4;spacingRight=4;overflow=hidden;rotatable=0;points=[[0,0.5],[1,0.5]];portConstraint=eastwest;whiteSpace=wrap;html=1;" parent="A-byGo0PZ-ZunFwNZqk_-58" vertex="1">
          <mxGeometry y="96" width="260" height="26" as="geometry" />
        </mxCell>
        <mxCell id="A-byGo0PZ-ZunFwNZqk_-63" value="+ getNombre(): String" style="text;strokeColor=none;fillColor=none;align=left;verticalAlign=top;spacingLeft=4;spacingRight=4;overflow=hidden;rotatable=0;points=[[0,0.5],[1,0.5]];portConstraint=eastwest;whiteSpace=wrap;html=1;" parent="A-byGo0PZ-ZunFwNZqk_-58" vertex="1">
          <mxGeometry y="122" width="260" height="26" as="geometry" />
        </mxCell>
        <mxCell id="A-byGo0PZ-ZunFwNZqk_-64" value="+ setSeguridadSocial(seguridadSocial:String)" style="text;strokeColor=none;fillColor=none;align=left;verticalAlign=top;spacingLeft=4;spacingRight=4;overflow=hidden;rotatable=0;points=[[0,0.5],[1,0.5]];portConstraint=eastwest;whiteSpace=wrap;html=1;" parent="A-byGo0PZ-ZunFwNZqk_-58" vertex="1">
          <mxGeometry y="148" width="260" height="26" as="geometry" />
        </mxCell>
        <mxCell id="A-byGo0PZ-ZunFwNZqk_-65" value="+ getSeguridadSocial(): String" style="text;strokeColor=none;fillColor=none;align=left;verticalAlign=top;spacingLeft=4;spacingRight=4;overflow=hidden;rotatable=0;points=[[0,0.5],[1,0.5]];portConstraint=eastwest;whiteSpace=wrap;html=1;" parent="A-byGo0PZ-ZunFwNZqk_-58" vertex="1">
          <mxGeometry y="174" width="260" height="26" as="geometry" />
        </mxCell>
        <mxCell id="Nh3Jt7YSOFXCaykqHAAw-4" value="+ setDomicilio(domicilio:String)" style="text;strokeColor=none;fillColor=none;align=left;verticalAlign=top;spacingLeft=4;spacingRight=4;overflow=hidden;rotatable=0;points=[[0,0.5],[1,0.5]];portConstraint=eastwest;whiteSpace=wrap;html=1;" vertex="1" parent="A-byGo0PZ-ZunFwNZqk_-58">
          <mxGeometry y="200" width="260" height="26" as="geometry" />
        </mxCell>
        <mxCell id="Nh3Jt7YSOFXCaykqHAAw-5" value="+ getDomicilio(): String" style="text;strokeColor=none;fillColor=none;align=left;verticalAlign=top;spacingLeft=4;spacingRight=4;overflow=hidden;rotatable=0;points=[[0,0.5],[1,0.5]];portConstraint=eastwest;whiteSpace=wrap;html=1;" vertex="1" parent="A-byGo0PZ-ZunFwNZqk_-58">
          <mxGeometry y="226" width="260" height="26" as="geometry" />
        </mxCell>
        <mxCell id="A-byGo0PZ-ZunFwNZqk_-66" value="Jefe" style="swimlane;fontStyle=1;align=center;verticalAlign=top;childLayout=stackLayout;horizontal=1;startSize=26;horizontalStack=0;resizeParent=1;resizeParentMax=0;resizeLast=0;collapsible=1;marginBottom=0;whiteSpace=wrap;html=1;" parent="1" vertex="1">
          <mxGeometry x="470" y="680" width="230" height="112" as="geometry" />
        </mxCell>
        <mxCell id="A-byGo0PZ-ZunFwNZqk_-67" value="- numTelefono: String" style="text;strokeColor=none;fillColor=none;align=left;verticalAlign=top;spacingLeft=4;spacingRight=4;overflow=hidden;rotatable=0;points=[[0,0.5],[1,0.5]];portConstraint=eastwest;whiteSpace=wrap;html=1;" parent="A-byGo0PZ-ZunFwNZqk_-66" vertex="1">
          <mxGeometry y="26" width="230" height="26" as="geometry" />
        </mxCell>
        <mxCell id="A-byGo0PZ-ZunFwNZqk_-69" value="" style="line;strokeWidth=1;fillColor=none;align=left;verticalAlign=middle;spacingTop=-1;spacingLeft=3;spacingRight=3;rotatable=0;labelPosition=right;points=[];portConstraint=eastwest;strokeColor=inherit;" parent="A-byGo0PZ-ZunFwNZqk_-66" vertex="1">
          <mxGeometry y="52" width="230" height="8" as="geometry" />
        </mxCell>
        <mxCell id="A-byGo0PZ-ZunFwNZqk_-70" value="+ setNumTelefono(numTelefono:String)" style="text;strokeColor=none;fillColor=none;align=left;verticalAlign=top;spacingLeft=4;spacingRight=4;overflow=hidden;rotatable=0;points=[[0,0.5],[1,0.5]];portConstraint=eastwest;whiteSpace=wrap;html=1;" parent="A-byGo0PZ-ZunFwNZqk_-66" vertex="1">
          <mxGeometry y="60" width="230" height="26" as="geometry" />
        </mxCell>
        <mxCell id="A-byGo0PZ-ZunFwNZqk_-71" value="+ getNumTelefono(): String" style="text;strokeColor=none;fillColor=none;align=left;verticalAlign=top;spacingLeft=4;spacingRight=4;overflow=hidden;rotatable=0;points=[[0,0.5],[1,0.5]];portConstraint=eastwest;whiteSpace=wrap;html=1;" parent="A-byGo0PZ-ZunFwNZqk_-66" vertex="1">
          <mxGeometry y="86" width="230" height="26" as="geometry" />
        </mxCell>
        <mxCell id="A-byGo0PZ-ZunFwNZqk_-75" value="Operario" style="swimlane;fontStyle=1;align=center;verticalAlign=top;childLayout=stackLayout;horizontal=1;startSize=26;horizontalStack=0;resizeParent=1;resizeParentMax=0;resizeLast=0;collapsible=1;marginBottom=0;whiteSpace=wrap;html=1;" parent="1" vertex="1">
          <mxGeometry x="720" y="701.3" width="230" height="34" as="geometry" />
        </mxCell>
        <mxCell id="A-byGo0PZ-ZunFwNZqk_-84" value="" style="endArrow=diamondThin;endFill=0;endSize=24;html=1;rounded=0;exitX=0.5;exitY=0;exitDx=0;exitDy=0;entryX=0.544;entryY=1.103;entryDx=0;entryDy=0;entryPerimeter=0;" parent="1" source="A-byGo0PZ-ZunFwNZqk_-7" target="A-byGo0PZ-ZunFwNZqk_-17" edge="1">
          <mxGeometry width="160" relative="1" as="geometry">
            <mxPoint x="250" y="530" as="sourcePoint" />
            <mxPoint x="410" y="530" as="targetPoint" />
          </mxGeometry>
        </mxCell>
        <mxCell id="A-byGo0PZ-ZunFwNZqk_-85" value="" style="endArrow=diamondThin;endFill=0;endSize=24;html=1;rounded=0;exitX=0.5;exitY=0;exitDx=0;exitDy=0;entryX=0.556;entryY=1.077;entryDx=0;entryDy=0;entryPerimeter=0;" parent="1" source="A-byGo0PZ-ZunFwNZqk_-45" target="A-byGo0PZ-ZunFwNZqk_-17" edge="1">
          <mxGeometry width="160" relative="1" as="geometry">
            <mxPoint x="169" y="660" as="sourcePoint" />
            <mxPoint x="214" y="525" as="targetPoint" />
          </mxGeometry>
        </mxCell>
        <mxCell id="A-byGo0PZ-ZunFwNZqk_-86" value="Compañia" style="swimlane;fontStyle=1;align=center;verticalAlign=top;childLayout=stackLayout;horizontal=1;startSize=26;horizontalStack=0;resizeParent=1;resizeParentMax=0;resizeLast=0;collapsible=1;marginBottom=0;whiteSpace=wrap;html=1;" parent="1" vertex="1">
          <mxGeometry x="270" y="200" width="250" height="112" as="geometry" />
        </mxCell>
        <mxCell id="A-byGo0PZ-ZunFwNZqk_-87" value="- denominación: String" style="text;strokeColor=none;fillColor=none;align=left;verticalAlign=top;spacingLeft=4;spacingRight=4;overflow=hidden;rotatable=0;points=[[0,0.5],[1,0.5]];portConstraint=eastwest;whiteSpace=wrap;html=1;" parent="A-byGo0PZ-ZunFwNZqk_-86" vertex="1">
          <mxGeometry y="26" width="250" height="26" as="geometry" />
        </mxCell>
        <mxCell id="A-byGo0PZ-ZunFwNZqk_-88" value="" style="line;strokeWidth=1;fillColor=none;align=left;verticalAlign=middle;spacingTop=-1;spacingLeft=3;spacingRight=3;rotatable=0;labelPosition=right;points=[];portConstraint=eastwest;strokeColor=inherit;" parent="A-byGo0PZ-ZunFwNZqk_-86" vertex="1">
          <mxGeometry y="52" width="250" height="8" as="geometry" />
        </mxCell>
        <mxCell id="A-byGo0PZ-ZunFwNZqk_-89" value="+ setDenominación(denominación:String)" style="text;strokeColor=none;fillColor=none;align=left;verticalAlign=top;spacingLeft=4;spacingRight=4;overflow=hidden;rotatable=0;points=[[0,0.5],[1,0.5]];portConstraint=eastwest;whiteSpace=wrap;html=1;" parent="A-byGo0PZ-ZunFwNZqk_-86" vertex="1">
          <mxGeometry y="60" width="250" height="26" as="geometry" />
        </mxCell>
        <mxCell id="A-byGo0PZ-ZunFwNZqk_-90" value="+ getDenominación (): String" style="text;strokeColor=none;fillColor=none;align=left;verticalAlign=top;spacingLeft=4;spacingRight=4;overflow=hidden;rotatable=0;points=[[0,0.5],[1,0.5]];portConstraint=eastwest;whiteSpace=wrap;html=1;" parent="A-byGo0PZ-ZunFwNZqk_-86" vertex="1">
          <mxGeometry y="86" width="250" height="26" as="geometry" />
        </mxCell>
        <mxCell id="A-byGo0PZ-ZunFwNZqk_-91" value="0..N" style="text;html=1;align=center;verticalAlign=middle;resizable=0;points=[];autosize=1;strokeColor=none;fillColor=none;" parent="1" vertex="1">
          <mxGeometry x="142" y="504" width="50" height="30" as="geometry" />
        </mxCell>
        <mxCell id="A-byGo0PZ-ZunFwNZqk_-92" value="0..1" style="text;html=1;align=center;verticalAlign=middle;resizable=0;points=[];autosize=1;strokeColor=none;fillColor=none;" parent="1" vertex="1">
          <mxGeometry x="198" y="505" width="40" height="30" as="geometry" />
        </mxCell>
        <mxCell id="A-byGo0PZ-ZunFwNZqk_-93" value="1" style="text;html=1;align=center;verticalAlign=middle;resizable=0;points=[];autosize=1;strokeColor=none;fillColor=none;" parent="1" vertex="1">
          <mxGeometry x="-184" y="641.3" width="30" height="30" as="geometry" />
        </mxCell>
        <mxCell id="A-byGo0PZ-ZunFwNZqk_-94" value="1..N" style="text;html=1;align=center;verticalAlign=middle;resizable=0;points=[];autosize=1;strokeColor=none;fillColor=none;" parent="1" vertex="1">
          <mxGeometry x="19" y="648.3" width="50" height="30" as="geometry" />
        </mxCell>
        <mxCell id="A-byGo0PZ-ZunFwNZqk_-95" value="" style="endArrow=none;html=1;rounded=0;exitX=0.5;exitY=0;exitDx=0;exitDy=0;entryX=0.532;entryY=1.008;entryDx=0;entryDy=0;entryPerimeter=0;" parent="1" source="A-byGo0PZ-ZunFwNZqk_-2" target="A-byGo0PZ-ZunFwNZqk_-90" edge="1">
          <mxGeometry width="50" height="50" relative="1" as="geometry">
            <mxPoint x="340" y="470" as="sourcePoint" />
            <mxPoint x="390" y="420" as="targetPoint" />
          </mxGeometry>
        </mxCell>
        <mxCell id="A-byGo0PZ-ZunFwNZqk_-96" value="Tiene" style="text;html=1;align=center;verticalAlign=middle;resizable=0;points=[];autosize=1;strokeColor=none;fillColor=none;" parent="1" vertex="1">
          <mxGeometry x="250" y="340" width="50" height="30" as="geometry" />
        </mxCell>
        <mxCell id="A-byGo0PZ-ZunFwNZqk_-97" value="" style="endArrow=none;html=1;rounded=0;exitX=0.75;exitY=0;exitDx=0;exitDy=0;entryX=0.532;entryY=1.008;entryDx=0;entryDy=0;entryPerimeter=0;" parent="1" target="A-byGo0PZ-ZunFwNZqk_-90" edge="1">
          <mxGeometry width="50" height="50" relative="1" as="geometry">
            <mxPoint x="632.5" y="400" as="sourcePoint" />
            <mxPoint x="413" y="322" as="targetPoint" />
          </mxGeometry>
        </mxCell>
        <mxCell id="A-byGo0PZ-ZunFwNZqk_-98" value="Trabaja" style="text;html=1;align=center;verticalAlign=middle;resizable=0;points=[];autosize=1;strokeColor=none;fillColor=none;" parent="1" vertex="1">
          <mxGeometry x="515" y="340" width="60" height="30" as="geometry" />
        </mxCell>
        <mxCell id="A-byGo0PZ-ZunFwNZqk_-99" value="1..N" style="text;html=1;align=center;verticalAlign=middle;resizable=0;points=[];autosize=1;strokeColor=none;fillColor=none;" parent="1" vertex="1">
          <mxGeometry x="159" y="376" width="50" height="30" as="geometry" />
        </mxCell>
        <mxCell id="A-byGo0PZ-ZunFwNZqk_-100" value="1..N" style="text;html=1;align=center;verticalAlign=middle;resizable=0;points=[];autosize=1;strokeColor=none;fillColor=none;" parent="1" vertex="1">
          <mxGeometry x="560" y="377" width="50" height="30" as="geometry" />
        </mxCell>
        <mxCell id="A-byGo0PZ-ZunFwNZqk_-101" value="1" style="text;html=1;align=center;verticalAlign=middle;resizable=0;points=[];autosize=1;strokeColor=none;fillColor=none;" parent="1" vertex="1">
          <mxGeometry x="325" y="310" width="30" height="30" as="geometry" />
        </mxCell>
        <mxCell id="A-byGo0PZ-ZunFwNZqk_-102" value="1" style="text;html=1;align=center;verticalAlign=middle;resizable=0;points=[];autosize=1;strokeColor=none;fillColor=none;" parent="1" vertex="1">
          <mxGeometry x="460" y="310" width="30" height="30" as="geometry" />
        </mxCell>
        <mxCell id="Nh3Jt7YSOFXCaykqHAAw-1" value="" style="endArrow=block;endSize=16;endFill=0;html=1;rounded=0;entryX=0.475;entryY=0.972;entryDx=0;entryDy=0;entryPerimeter=0;exitX=0.5;exitY=0;exitDx=0;exitDy=0;" edge="1" parent="1" source="A-byGo0PZ-ZunFwNZqk_-66" target="Nh3Jt7YSOFXCaykqHAAw-5">
          <mxGeometry width="160" relative="1" as="geometry">
            <mxPoint x="620" y="670" as="sourcePoint" />
            <mxPoint x="550" y="561.3" as="targetPoint" />
          </mxGeometry>
        </mxCell>
        <mxCell id="Nh3Jt7YSOFXCaykqHAAw-2" value="" style="endArrow=block;endSize=16;endFill=0;html=1;rounded=0;exitX=0.5;exitY=0;exitDx=0;exitDy=0;entryX=0.475;entryY=0.972;entryDx=0;entryDy=0;entryPerimeter=0;" edge="1" parent="1" source="A-byGo0PZ-ZunFwNZqk_-75" target="Nh3Jt7YSOFXCaykqHAAw-5">
          <mxGeometry width="160" relative="1" as="geometry">
            <mxPoint x="620.3800000000001" y="652.0019999999997" as="sourcePoint" />
            <mxPoint x="790" y="660" as="targetPoint" />
          </mxGeometry>
        </mxCell>
        <mxCell id="Nh3Jt7YSOFXCaykqHAAw-7" value="" style="endArrow=none;html=1;rounded=0;entryX=0.5;entryY=1;entryDx=0;entryDy=0;exitX=0.5;exitY=0.837;exitDx=0;exitDy=0;exitPerimeter=0;" edge="1" parent="1" source="A-byGo0PZ-ZunFwNZqk_-10" target="A-byGo0PZ-ZunFwNZqk_-75">
          <mxGeometry width="50" height="50" relative="1" as="geometry">
            <mxPoint x="-134.61191787681514" y="783.3000000000002" as="sourcePoint" />
            <mxPoint x="845" y="745" as="targetPoint" />
            <Array as="points">
              <mxPoint x="230" y="970" />
              <mxPoint x="650" y="970" />
            </Array>
          </mxGeometry>
        </mxCell>
        <mxCell id="Nh3Jt7YSOFXCaykqHAAw-8" value="1..N" style="text;html=1;align=center;verticalAlign=middle;resizable=0;points=[];autosize=1;strokeColor=none;fillColor=none;" vertex="1" parent="1">
          <mxGeometry x="-204" y="731.3" width="50" height="30" as="geometry" />
        </mxCell>
        <mxCell id="Nh3Jt7YSOFXCaykqHAAw-10" value="1..N" style="text;html=1;align=center;verticalAlign=middle;resizable=0;points=[];autosize=1;strokeColor=none;fillColor=none;" vertex="1" parent="1">
          <mxGeometry x="823" y="735.3" width="50" height="30" as="geometry" />
        </mxCell>
        <mxCell id="Nh3Jt7YSOFXCaykqHAAw-12" value="" style="endArrow=none;html=1;rounded=0;entryX=0;entryY=0.5;entryDx=0;entryDy=0;exitX=1.006;exitY=-0.011;exitDx=0;exitDy=0;exitPerimeter=0;" edge="1" parent="1" source="A-byGo0PZ-ZunFwNZqk_-5" target="A-byGo0PZ-ZunFwNZqk_-67">
          <mxGeometry width="50" height="50" relative="1" as="geometry">
            <mxPoint x="360" y="540" as="sourcePoint" />
            <mxPoint x="413" y="607.3" as="targetPoint" />
          </mxGeometry>
        </mxCell>
        <mxCell id="Nh3Jt7YSOFXCaykqHAAw-13" value="Tiene" style="text;html=1;align=center;verticalAlign=middle;resizable=0;points=[];autosize=1;strokeColor=none;fillColor=none;" vertex="1" parent="1">
          <mxGeometry x="389" y="585" width="50" height="30" as="geometry" />
        </mxCell>
        <mxCell id="Nh3Jt7YSOFXCaykqHAAw-14" value="1..N" style="text;html=1;align=center;verticalAlign=middle;resizable=0;points=[];autosize=1;strokeColor=none;fillColor=none;" vertex="1" parent="1">
          <mxGeometry x="305" y="449.99999999999994" width="50" height="30" as="geometry" />
        </mxCell>
        <mxCell id="Nh3Jt7YSOFXCaykqHAAw-15" value="1..N" style="text;html=1;align=center;verticalAlign=middle;resizable=0;points=[];autosize=1;strokeColor=none;fillColor=none;" vertex="1" parent="1">
          <mxGeometry x="430" y="660" width="50" height="30" as="geometry" />
        </mxCell>
        <mxCell id="Nh3Jt7YSOFXCaykqHAAw-17" value="" style="endArrow=none;html=1;rounded=0;exitX=0.051;exitY=0.268;exitDx=0;exitDy=0;exitPerimeter=0;entryX=0.238;entryY=0.057;entryDx=0;entryDy=0;entryPerimeter=0;" edge="1" parent="1" source="Nh3Jt7YSOFXCaykqHAAw-14" target="Nh3Jt7YSOFXCaykqHAAw-10">
          <mxGeometry width="50" height="50" relative="1" as="geometry">
            <mxPoint x="458" y="910" as="sourcePoint" />
            <mxPoint x="840" y="820" as="targetPoint" />
            <Array as="points">
              <mxPoint x="440" y="458" />
              <mxPoint x="430" y="820" />
              <mxPoint x="835" y="820" />
            </Array>
          </mxGeometry>
        </mxCell>
        <mxCell id="Nh3Jt7YSOFXCaykqHAAw-18" value="Conduce" style="text;html=1;align=center;verticalAlign=middle;resizable=0;points=[];autosize=1;strokeColor=none;fillColor=none;" vertex="1" parent="1">
          <mxGeometry x="420" y="970" width="70" height="30" as="geometry" />
        </mxCell>
        <mxCell id="Nh3Jt7YSOFXCaykqHAAw-22" value="" style="endArrow=none;html=1;rounded=0;exitX=0.5;exitY=0;exitDx=0;exitDy=0;entryX=0.5;entryY=0;entryDx=0;entryDy=0;" edge="1" parent="1" source="A-byGo0PZ-ZunFwNZqk_-45" target="A-byGo0PZ-ZunFwNZqk_-58">
          <mxGeometry width="50" height="50" relative="1" as="geometry">
            <mxPoint x="160" y="700" as="sourcePoint" />
            <mxPoint x="640" y="100" as="targetPoint" />
            <Array as="points">
              <mxPoint x="30" y="100" />
              <mxPoint x="630" y="100" />
            </Array>
          </mxGeometry>
        </mxCell>
        <mxCell id="Nh3Jt7YSOFXCaykqHAAw-23" value="" style="endArrow=none;html=1;rounded=0;exitX=0.5;exitY=0;exitDx=0;exitDy=0;entryX=0.75;entryY=0;entryDx=0;entryDy=0;" edge="1" parent="1" target="A-byGo0PZ-ZunFwNZqk_-58">
          <mxGeometry width="50" height="50" relative="1" as="geometry">
            <mxPoint x="-166" y="671.3" as="sourcePoint" />
            <mxPoint x="439" y="400.3" as="targetPoint" />
            <Array as="points">
              <mxPoint x="-161" y="50" />
              <mxPoint x="140" y="50" />
              <mxPoint x="695" y="50" />
              <mxPoint x="695" y="220" />
            </Array>
          </mxGeometry>
        </mxCell>
        <mxCell id="Nh3Jt7YSOFXCaykqHAAw-24" value="0..N" style="text;html=1;align=center;verticalAlign=middle;resizable=0;points=[];autosize=1;strokeColor=none;fillColor=none;" vertex="1" parent="1">
          <mxGeometry x="687" y="377" width="50" height="30" as="geometry" />
        </mxCell>
        <mxCell id="Nh3Jt7YSOFXCaykqHAAw-25" value="0..N" style="text;html=1;align=center;verticalAlign=middle;resizable=0;points=[];autosize=1;strokeColor=none;fillColor=none;" vertex="1" parent="1">
          <mxGeometry x="620" y="377" width="50" height="30" as="geometry" />
        </mxCell>
        <mxCell id="Nh3Jt7YSOFXCaykqHAAw-26" value="1" style="text;html=1;align=center;verticalAlign=middle;resizable=0;points=[];autosize=1;strokeColor=none;fillColor=none;" vertex="1" parent="1">
          <mxGeometry x="-140" y="650" width="30" height="30" as="geometry" />
        </mxCell>
        <mxCell id="Nh3Jt7YSOFXCaykqHAAw-27" value="1" style="text;html=1;align=center;verticalAlign=middle;resizable=0;points=[];autosize=1;strokeColor=none;fillColor=none;" vertex="1" parent="1">
          <mxGeometry y="648.3" width="30" height="30" as="geometry" />
        </mxCell>
      </root>
    </mxGraphModel>
  </diagram>
</mxfile>
